<?xml version="1.0" encoding="UTF-8" standalone="no"?>
<!-- Created with Sodipodi ("http://www.sodipodi.com/") -->

<svg
   xmlns:dc="http://purl.org/dc/elements/1.1/"
   xmlns:cc="http://creativecommons.org/ns#"
   xmlns:rdf="http://www.w3.org/1999/02/22-rdf-syntax-ns#"
   xmlns:svg="http://www.w3.org/2000/svg"
   xmlns="http://www.w3.org/2000/svg"
   xmlns:sodipodi="http://sodipodi.sourceforge.net/DTD/sodipodi-0.dtd"
   xmlns:inkscape="http://www.inkscape.org/namespaces/inkscape"
   xml:space="preserve"
   width="1080"
   height="1080"
   style="fill-rule:evenodd"
   viewBox="0 0 8711.6495 10101.889"
   id="svg2"
   sodipodi:version="0.32"
   inkscape:version="0.91 r13725"
   sodipodi:docname="coat2.svg"
   inkscape:output_extension="org.inkscape.output.svg.inkscape"
   version="1.1"
   inkscape:export-filename="/home/jakub/coat2.png"
   inkscape:export-xdpi="192"
   inkscape:export-ydpi="192"><sodipodi:namedview
     inkscape:window-height="1009"
     inkscape:window-width="956"
     inkscape:pageshadow="2"
     inkscape:pageopacity="0"
     borderopacity="1.0"
     bordercolor="#666666"
     pagecolor="#ba2b1a"
     id="base"
     inkscape:zoom="0.32"
     inkscape:cx="399.92258"
     inkscape:cy="385.878"
     inkscape:window-x="956"
     inkscape:window-y="0"
     inkscape:current-layer="g3378"
     showgrid="false"
     inkscape:window-maximized="0"
     fit-margin-top="0"
     fit-margin-left="-540.1"
     fit-margin-right="0"
     fit-margin-bottom="0"
     inkscape:object-nodes="true"
     inkscape:snap-intersection-paths="true"
     inkscape:object-paths="true"
     showborder="true"
     showguides="true"
     inkscape:snap-smooth-nodes="true"
     inkscape:snap-midpoints="true"
     inkscape:guide-bbox="true"
     inkscape:snap-bbox="true"
     inkscape:bbox-paths="true"
     inkscape:bbox-nodes="true"
     inkscape:snap-bbox-edge-midpoints="true"
     inkscape:snap-bbox-midpoints="true"
     inkscape:snap-object-midpoints="true"
     inkscape:snap-center="true"
     inkscape:snap-text-baseline="true"
     inkscape:snap-page="true"
     borderlayer="false"><sodipodi:guide
       id="guide3468"
       orientation="0,1"
       position="0,0" /><sodipodi:guide
       id="guide3421"
       orientation="1,0"
       position="0,0" /><sodipodi:guide
       id="guide3423"
       orientation="0,1"
       position="0,35917.826" /><sodipodi:guide
       id="guide3425"
       orientation="1,0"
       position="17423.299,0" /><sodipodi:guide
       inkscape:color="rgb(0,0,255)"
       inkscape:label=""
       id="guide3427"
       orientation="1,0"
       position="8711.6495,0" /><sodipodi:guide
       inkscape:color="rgb(0,0,255)"
       inkscape:label=""
       id="guide3429"
       orientation="0,1"
       position="0,17958.913" /><sodipodi:guide
       inkscape:color="rgb(0,0,255)"
       inkscape:label=""
       id="guide3431"
       orientation="1,0"
       position="4355.8247,5050.9443" /><sodipodi:guide
       inkscape:color="rgb(0,0,255)"
       inkscape:label=""
       id="guide3433"
       orientation="0,1"
       position="4355.8247,5050.9443" /></sodipodi:namedview><metadata
     id="metadata333"><rdf:RDF><cc:Work
         rdf:about=""><dc:format>image/svg+xml</dc:format><dc:type
           rdf:resource="http://purl.org/dc/dcmitype/StillImage" /><dc:title></dc:title></cc:Work></rdf:RDF></metadata><defs
     id="defs4"><inkscape:perspective
       id="perspective170"
       inkscape:persp3d-origin="512.50001 : 416.66671 : 1"
       inkscape:vp_z="1025 : 625.00004 : 1"
       inkscape:vp_y="0 : 1000 : 0"
       inkscape:vp_x="0 : 625.00004 : 1"
       sodipodi:type="inkscape:persp3d" /><style
       id="style6"
       type="text/css">
   
    .str3 {stroke:#000000;stroke-width:21;stroke-linecap:round}
    .str1 {stroke:#000000;stroke-width:42}
    .str2 {stroke:#000000;stroke-width:42;stroke-linecap:round}
    .str0 {stroke:#000000;stroke-width:56}
    .fil4 {fill:none}
    .fil5 {fill:#1F1A17}
    .fil3 {fill:#000000}
    .fil0 {fill:#BA2B1A}
    .fil1 {fill:#E9CC0C}
    .fil2 {fill:#FFFFFF}
   
  </style></defs><g
     transform="translate(-64.536428,-1515.5148)"
     id="Layer 2" /><g
     inkscape:transform-center-y="-617.99585"
     inkscape:transform-center-x="-624.20871"
     transform="translate(245.75947,-178.6484)"
     id="g3378"><g
       inkscape:transform-center-y="-76.432538"
       inkscape:transform-center-x="-583.60864"
       id="g3383"><g
         transform="matrix(1.481407,0,0,1.480956,-2091.7065,-2850.2278)"
         id="Layer 1"
         inkscape:transform-center-x="-624.46022"
         inkscape:transform-center-y="-104.49244"><path
           inkscape:connector-curvature="0"
           style="fill:#bfbfbf"
           id="path18"
           d="m 2810.5818,3104.0964 -58,15 86,171 65,356 837,2 41,-272 102,-279 -68,7 -122,109 -95,11 -37,23 -109,-64 -34,-28 -69,-124 -79,3 -107,141 -72,24 -39,50 -88,-53 -44,1 -110,-93 z"
           class="fil1" /><path
           inkscape:connector-curvature="0"
           style="fill:#000000"
           id="path102"
           d="m 2930.5818,3648.0964 -54.2545,2.9087 c 0,-48 -11.7455,-95.9087 -15.7455,-138.9087 -4,-46 -14,-124 -29,-181 -28,-98 -133,-229 -85,-240 81,-20 140,21 189,88 23,0 82,-1 107,48 26,-48 63,-67 108,-69 8,-17 15,-34 20,-42 27,-45 74,-117 134,-114 61,2 86,33 113,83 12,24 22,55 26,80 34,-4 55,4 74,12 14,6 38,30 47,47 12,-20 21,-30 43,-36 22,-6 24,-9 79,1 27,-34 59,-60 97,-85 22,-14 42,-24 69,-30 33,-7 62,1 58,16 -6,24 -43,81 -61,133 -43,123 -87,277 -92,416 l -42,-1 c 12,-125 39,-266 78,-378 15,-46 31,-82 56,-126 -3,-35 -92,38 -113,64 -13,16 -22,57 -45,44 -29,-16 -42,-19 -70,2 -35,35 -39,41 -37,88 1,19 16,36 23,43 7,8 28,27 64,33 10,2 0,29 -4,30 -25,7 -59,-11 -73,-19 -13,-7 -39,-22 -57,-42 -28,15 -67,34 -91,41 -29,8 -51,-2 -35,-20 15,-17 34,-17 53,-24 19,-7 34,-21 49,-52 7,-15 16,-34 6,-72 -4,-17 -36,-38 -56,-42 -12,-2 -36,-3 -44,-11 -13,-15 -17,-21 -19,-36 -1,-17 -7,-32 -13,-44 -13,-26 -40,-69 -76,-69 -25,0 -58,30 -81,61 -18,25 -27,54 -42,76 -1,2 -8,20 -29,19 -38,-6 -74,12 -75,83 0,47 2,45 23,69 25,27 53,36 73,48 8,6 -2,25 -13,25 -18,1 -53,-9 -70,-20 -20,-13 -27,-35 -41,-42 -29,3 -48,55 -108,67 -51,10 -19,-25 -2,-45 43,-51 92,-33 72,-130 -6,-34 -56,-36 -89,-37 -40,-2 -37,-52 -85,-79 -30,-18 -37,-15 -54,-12 -17,3 5,41 13,50 13,14 17,20 24,35 11,22 19,50 26,67 2,4 9,21 19,70 10,64 15,81 29,151 8,44 20,93 29,144 z"
           class="fil3"
           sodipodi:nodetypes="ccccccccccccccsccccccccccccccccccccscccccssccccccccccccccscccccc" /><path
           inkscape:connector-curvature="0"
           style="fill:#ffffff"
           id="path14"
           d="m 4345.9734,4161.1032 -158.8983,-196.2764 -214.0676,-210.2277 -275.599,-117.9027 -311.7938,-54.5424 -581.6814,-22.4399 0,690.1498 572.5467,-13.832 180.1909,98.9004 257.5086,595.779 -1132.9853,2947.7613 783.5593,0 721.6545,-1854.2256 633.9234,1854.2256 784.0962,0 -361.7138,-1063.6722 157.1346,113.2404 173.6,219.2 41.6,160.8 -4,178.4 112,-161.6 40.8,-156.8 -40.8,-198.4 148.8,65.6 194.4,-20.8 181.6,-69.6 24.8,-33.6 -148.8,-20.8 -256.8,-78.4 194.4,-86.4 108,-211.2 -108,66.4 -198.4,78.4 -99.2,57.6 66.4,-160.8 12,-165.6 89.6,-42.4 92,-116 25.6,-86.4 134.4,-108.8 47.2,-155.2 100,-106.4 14.4,-139.2 60.8,-88.8 15.2,-194.4 62.4,-101.6 6.4,-188 31.2,-124.8 -31.2,-124.8 23.2,-129.6 -23.2,-52 -84,80.8 -194.4,144.8 -32,-180 -138.4,-280.8 -140.8,-206.4 -60.8,-66.4 -173.6,169.6 178.4,222.4 108.8,376.8 -4,387.2 -86.4,503.2 -40,3.2 -47.2,-209.6 -112,-141.6 -18.4,130.4 -90.4,253.6 -202.4,-463.2 -32.8,-293.6 36.8,-271.2 119.2,-275.2 184.8,-249.6 176.8,-156.8 147.2,-28.8 134.4,52 27.2,112 46.4,-21.6 65.6,-135.2 -62.4,-107.2 101.6,-97.6 36,-199.2 38.4,-79.2 -12,-178.4 16,-109.6 -64.8,-191.2 -20.8,-144 -43.2,-28.8 -84,182.4 -92.8,170.4 -26.4,69.6 -75.2,-89.6 -141.6,5.6 -80.8,96 115.2,23.2 58.4,63.2 8.8,112.8 -64,162.4 -205.6,220 -332.8,420 -156,326.4 -37.6,153.6 -104.8,-80.8 -77.6,-34.4 -58.4,-55.2 -37.6,107.2 44,150.4 -32,95.2 55.2,153.6 -20.8,104 66.4,116 6.4,153.6 77.6,121.6 40.8,173.6 92.8,98.4 43.2,112.8 141.6,92.8 46.4,106.4 119.2,101.6 43.2,14.4 -23.2,159.2 -78.4,60.8 -115.2,-23.2 -220,-263.2 -156.468,-316.3696 -122.4852,-426.4417 -145.9391,-433.8728 -219.2465,-651.8104"
           class="fil2"
           sodipodi:nodetypes="ccccccccccccccccccccccccccccccccccccccccccccccccccccccccccccccccccccccccccccccccccccccccccccccccccccccccccccccccccccccccccccccc" /><path
           inkscape:connector-curvature="0"
           style="fill:#ffffff"
           id="path16"
           d="m 5472.6484,4188.0408 199.2,-234.4 -121.6,-176.8 -58.4,-160.8 0,-128.8 71.2,-70.4 73.6,16 -35.2,-80.8 -93.6,-38.4 -89.6,19.2 -87.2,103.2 -22.4,-55.2 -57.6,-170.4 -16,-154.4 0,-121.6 -77.6,96 -32,116 -83.2,90.4 -19.2,137.6 19.2,68 -42.4,51.2 3.2,135.2 48.8,86.4 -19.2,74.4 22.4,90.4 64,80 -64,76.8 6.4,103.2 35.2,60.8 57.6,42.4 16,-103.2 100,-38.4 112.8,22.4 89.6,64 z"
           class="fil2" /><path
           inkscape:connector-curvature="0"
           style="fill:none;stroke:#000000;stroke-width:42;stroke-linecap:round"
           id="path104"
           d="m 3234.5818,3510.0964 508,7"
           class="fil4 str2" /><path
           inkscape:connector-curvature="0"
           style="fill:#000000"
           id="path248"
           d="m 5242.7138,6814.8004 c 95.2,85.6 57.1346,39.6404 145.9346,128.4404 84.8,84.8 148.8,171.2 187.2,287.2 16.8,60 14.4,129.6 14.4,196.8 0,28 -29.6,127.2 24.8,72.8 62.4,-62.4 89.6,-110.4 128.8,-187.2 12.8,-27.2 30.4,-86.4 32,-118.4 0.8,-26.4 1.6,-55.2 0,-80.8 -2.4,-29.6 -17.6,-72 -20.8,-89.6 0,-26.4 21.6,-10.4 34.4,-1.6 24.8,16.8 78.4,29.6 99.2,29.6 33.6,0 69.6,0 100.8,-4.8 71.2,-7.2 140,-22.4 201.6,-52.8 26.4,-13.6 56.8,-26.4 77.6,-47.2 9.6,-9.6 18.4,-20.8 28,-30.4 0.8,-1.6 4,-4.8 7.2,-11.2 0.8,-1.6 9.6,-18.4 9.6,-19.2 -16.8,-0.8 -28.8,6.4 -45.6,5.6 -104,-4.8 -236,-40.8 -317.6,-70.4 -38.4,-13.6 92.8,-70.4 109.6,-84 29.6,-23.2 44.8,-46.4 60.8,-76 7.2,-12.8 39.2,-79.2 41.6,-88 4,-15.2 19.2,-44.8 21.6,-62.4 2.4,-16.8 2.4,-27.2 -3.2,-30.4 -21.6,-9.6 -90.4,58.4 -138.4,84 -36.8,20.8 -98.4,44.8 -150.4,60.8 -37.6,12 -68.8,36 -76.8,41.6 4.8,-40.8 26.4,-93.6 35.2,-131.2 11.2,-45.6 10.4,-87.2 9.6,-132.8 l -43.2,-3.2 c 0,104 -16,244 -73.6,313.6 -8.8,11.2 -20.8,33.6 -15.2,40.8 3.2,4 13.6,0.8 27.2,-10.4 59.2,-47.2 153.6,-97.6 276.8,-124.8 17.6,-4 43.2,-19.2 61.6,-31.2 0.8,-0.8 43.2,-45.6 33.6,-22.4 -39.2,96 -76.8,156 -184.8,200.8 -44,17.6 -101.6,32.8 -148.8,43.2 -66.4,14.4 -60,28 -28,30.4 34.4,2.4 98.4,-1.6 119.2,5.6 55.2,16 204.8,66.4 270.4,77.6 31.2,5.6 54.4,0 57.6,5.6 4.8,11.2 -62.4,40.8 -92,50.4 -87.2,28 -189.6,44.8 -277.6,24.8 -54.4,-12 -103.2,-39.2 -127.2,-57.6 -28.8,-20 -37.6,-59.2 -57.6,-82.4 -11.2,-12.8 -23.2,7.2 -20.8,7.2 12,28 21.6,59.2 40,84 23.2,33.6 53.6,100 53.6,152 -0.8,33.6 -0.8,67.2 -3.2,101.6 -2.4,26.4 -14.4,64 -18.4,74.4 -7.2,15.2 -33.6,83.2 -46.4,99.2 0,0 -19.2,32 -28.8,38.4 -1.6,-75.2 2.4,-176 -28,-237.6 -34.4,-69.6 -65.6,-117.6 -124,-196 -44.8,-60 -162.8682,-152.6442 -203.6682,-184.6442"
           class="fil3"
           sodipodi:nodetypes="cscsscccccsccscscccccccccccccccccccccccccccccccccccccccc" /><path
           inkscape:connector-curvature="0"
           style="fill:#000000"
           id="path270"
           d="m 5353.4484,6154.4408 c -29.6,8.8 77.6,242.4 204,256.8 173.6,2.4 215.2,9.6 304.8,0.8 48.8,-21.6 93.6,-60 124.8,-96.8 17.6,-20.8 113.6,-162.4 42.4,-161.6 -107.2,0 -204.8,24 -317.6,20 -79.2,-2.4 -181.6,-5.6 -258.4,-12.8 -44,-4.8 -79.2,-12 -100,-6.4 z"
           class="fil3" /><path
           inkscape:connector-curvature="0"
           style="fill:#ffffff"
           id="path272"
           d="m 5393.4484,6193.6408 c 0,-5.6 27.2,3.2 54.4,5.6 44.8,4 116.8,12.8 148,12.8 97.6,-0.8 198.4,-3.2 295.2,-8 35.2,-1.6 76,-9.6 105.6,-16 61.6,-13.6 -48.8,118.4 -79.2,148 -15.2,14.4 -44,31.2 -74.4,36 -76.8,12 -185.6,4 -236.8,6.4 -88,4.8 -216,-118.4 -212.8,-184.8 z"
           class="fil2" /><path
           inkscape:connector-curvature="0"
           style="fill:#000000"
           id="path274"
           d="m 5799.8484,6038.4408 c 13.6,-33.6 26.4,-82.4 29.6,-126.4 4,-41.6 5.6,-88 5.6,-132 0,-104 -50.4,-244.8 -114.4,-316.8 -65.6,-72 -72.8,-75.2 -75.2,23.2 -2.4,85.6 -66.4,182.4 -94.4,278.4 -12.8,41.6 -61.6,183.2 14.4,268 50.4,5.6 12.8,-56.8 9.6,-82.4 -5.6,-38.4 -8,-71.2 0.8,-107.2 26.4,-113.6 96,-229.6 103.2,-354.4 0.8,-2.4 1.6,-6.4 9.6,3.2 50.4,58.4 104.8,143.2 110.4,268 2.4,54.4 -1.6,109.6 -10.4,163.2 -5.6,37.6 -17.6,89.6 -19.2,110.4 -0.8,8.8 16,12 30.4,4.8 z"
           class="fil3" /><g
           id="g276"><path
             inkscape:connector-curvature="0"
             sodipodi:nodetypes="ccccccccccccccccccccccccccccccccccccccccccccccccc"
             style="fill:#000000"
             id="path278"
             d="m 5729.4484,5538.4408 c -0.8,-4.8 2.4,-10.4 7.2,-11.2 4.8,-1.6 9.6,0.8 10.4,6.4 l -17.6,4.8 z m 0,0 0,0 -17.6,4.8 0,0 17.6,-4.8 z m 0,0 c 1.6,11.2 2.4,22.4 3.2,33.6 l -18.4,2.4 c 0,-10.4 -0.8,-20.8 -2.4,-31.2 l 17.6,-4.8 z m 3.2,33.6 c 0,11.2 0,22.4 -0.8,33.6 l -17.6,0.8 c 0.8,-10.4 0.8,-21.6 0,-32 l 18.4,-2.4 z m -0.8,33.6 c -2.4,58.4 -17.6,116 -39.2,163.2 l -16,-10.4 c 20.8,-44 35.2,-97.6 37.6,-152 l 17.6,-0.8 z m -55.2,152.8 0,0 0,0 z m 15.2,10.4 -15.2,-9.6 15.2,9.6 z m 0.805,0 c -2.4,5.6 -5.605,12.8 -8.005,20 l -16.8,-5.6 c 3.2,-9.6 5.6,-18.4053 8.8,-24.8053 l 16.005,10.4053 z m -8.005,20 c -2.4,8 -4.8,17.6 -7.2,27.2 l -16.8,-4.8 c 2.4,-9.6 4.8,-19.2 7.2,-28 l 16.8,5.6 z m -7.2,27.2 c -10.4,48.8 -16.8,108.8 -14.4,128.8 l -17.6,4.8 c -2.4,-21.6 3.2,-86.4 15.2,-138.4 l 16.8,4.8 z m -14.4,128.8 c 0.8,4.8 -2.4,10.4 -7.2,11.2 -4.8,1.6 -9.6,-0.8 -10.4,-6.4 l 17.6,-4.8 z"
             class="fil3" /></g><path
           inkscape:connector-curvature="0"
           style="fill:#000000;fill-opacity:1"
           id="path280"
           d="m 5200.6484,5959.2408 -46.4,-17.6 c 3.2,52.8 28.8,106.4 60.8,146.4 28,34.4 46.4,57.6 81.6,80 8.8,5.6 69.6,35.2 70.4,32.8 l 15.2,-48 c -36,-5.6 -97.6,-45.6 -120.8,-75.2 -28.8,-35.2 -60.8,-72 -60.8,-118.4 z"
           class="fil5" /><path
           inkscape:connector-curvature="0"
           style="fill:#000000;fill-opacity:1"
           id="path282"
           d="m 5331.0484,6020.0408 c 0.8,3.2 -3.2,18.4 -8.8,20.8 -4,0.8 -50.4,-39.2 -76,-47.2 -27.2,-8.8 -74.4,-15.2 -100,-31.2 -29.6,-16.8 -67.2,-71.2 -96.8,-145.6 -12,-31.2 -17.6,-69.6 -13.6,-122.4 l 36.8,10.4 c -3.2,40.8 4.8,83.2 31.2,140 18.4,37.6 33.6,69.6 63.2,84 37.6,18.4 92,28.8 115.2,44 11.2,8 47.2,32 48.8,47.2 z"
           class="fil5" /><path
           inkscape:connector-curvature="0"
           style="fill:#000000;fill-opacity:1"
           id="path284"
           d="m 5245.4484,5803.2408 c 0,4 -4,16 -10.4,15.2 -2.4,-0.8 -20,-21.6 -43.2,-39.2 -15.2,-12 -33.6,-20 -51.2,-25.6 -38.4,-13.6 -75.2,-28.8 -100,-46.4 -40.8,-28.8 -59.2,-58.4 -75.2,-108 -4.8,-16.8 -9.6,-36.8 -12.8,-57.6 -4.8,-35.2 -5.6,-73.6 0,-130.4 l 37.6,14.4 c -4,29.6 -7.2,49.6 -6.4,71.2 0,28 1.6,48 11.2,79.2 11.2,38.4 19.2,54.4 28.8,67.2 9.6,12.8 24,20.8 44,35.2 36,25.6 80,36.8 116.8,54.4 24,10.4 60.8,54.4 60.8,70.4 z"
           class="fil5" /><path
           inkscape:connector-curvature="0"
           style="fill:#000000"
           id="path286"
           d="m 4937.4484,5203.2408 -35.2,-22.4 c -15.2,36 -28,92 -16.8,137.6 10.4,40.8 20,66.4 44.8,94.4 39.2,44 144,86.4 192.8,116.8 12,7.2 34.4,32.8 44,45.6 3.2,4 28,-0.8 1.6,-45.6 -32.8,-56 -148,-82.4 -190.4,-132.8 -16,-19.2 -47.2,-59.2 -52,-85.6 -4.8,-30.4 0,-82.4 11.2,-108 z"
           class="fil3" /><path
           inkscape:connector-curvature="0"
           style="fill:#000000"
           id="path288"
           d="m 4910.2484,4971.2408 -28.8,-36.8 c -17.6,20.8 -28.8,79.2 -30.4,114.4 -3.2,68 51.2,160.8 102.4,186.4 13.6,7.2 53.6,25.6 88,48 21.6,14.4 46.4,27.2 57.6,36.8 5.6,4 16,-3.2 16.8,-7.2 5.6,-16.8 -36.8,-48.8 -84,-72.8 -43.2,-22.4 -84.8,-47.2 -96.8,-64 -40,-50.4 -62.4,-143.2 -24.8,-204.8 z"
           class="fil3" /><path
           inkscape:connector-curvature="0"
           style="fill:#000000"
           id="path290"
           d="m 4877.4484,4664.8408 c -19.2,92 -48,150.4 -17.6,243.2 21.6,64.8 53.6,82.4 96,111.2 20,13.6 52.8,27.2 77.6,40 8.8,5.6 60,37.6 66.4,39.2 40.8,-12 -28.8,-52 -87.2,-88.8 -32.8,-20 -59.2,-25.6 -76.8,-43.2 -29.6,-28.8 -48.3284,-86.3665 -52,-124 -2.7288,-27.9698 -3.2,-64 2.4,-92 0.8,-3.2 3.2,-12.8 6.4,-20 4.8,4.8 28.8,29.6 57.6,45.6 40,22.4 120.8,49.6 151.2,88 20.8,26.4 33.6,42.4 45.6,55.2 6.4,7.2 12,1.6 19.2,-13.6 7.2,-14.4 -36,-61.6 -47.2,-73.6 -52,-57.6 -79.2,-53.6 -141.6,-84 -84.8,-42.4 -72.8,-81.6 -100,-83.2 z"
           class="fil3"
           sodipodi:nodetypes="cccccccsccccccccc" /><path
           inkscape:connector-curvature="0"
           style="fill:#000000"
           id="path292"
           d="m 5163.0484,4901.6408 -42.4,-67.2 c 19.2,-116.8 106.4,-310.4 139.2,-367.2 207.2,-352 405.6,-535.2 486.4,-613.6 80,-78.4 103.2,-117.6 138.4,-185.6 15.2,-30.4 76,-272.8 -106.4,-251.2 -25.6,3.2 -80,21.6 -56,-30.4 30.4,-67.2 61.6,-94.4 122.4,-119.2 79.2,-32.8 160.8,10.4 201.6,72.8 35.2,-177.6 179.2,-264 178.4,-448 79.2,37.6 104.8,136 104.8,242.4 0,26.4 -21.6,118.4 -35.2,138.4 -14.4,22.4 -111.2,167.2 -136,185.6 -9.6,1.6 -17.6,-4 -11.2,-15.2 18.4,-35.2 72,-114.4 79.2,-127.2 34.4,-60.8 59.2,-108.8 62.4,-178.4 3.2,-54.4 -5.6,-113.6 -29.6,-156.8 -24,129.6 -156,235.2 -191.2,394.4 -2.4,8.8 -12,108.8 -23.2,117.6 -5.6,4.8 -13.6,0.8 -14.4,-17.6 -3.2,-91.2 4.8,-108.8 -52,-156 -31.2,-26.4 -96.8,-18.4 -120,-11.2 -26.4,7.2 -68,40 -73.6,61.6 12.8,6.4 48,6.4 83.2,25.6 52.8,28 68.8,66.4 76,120.8 3.2,30.4 4,55.2 1.6,89.6 -2.4,25.6 -43.2,123.2 -58.4,145.6 -52.8,75.2 -131.2,174.4 -204,233.6 -20.8,16.8 -207.2,228 -234.4,272 -32.8,48 -76.8,110.4 -117.6,178.4 -63.2,104.8 -109.6,214.4 -140.8,307.2 -24,73.6 -41.6,131.2 -27.2,159.2 z"
           class="fil3" /><path
           inkscape:connector-curvature="0"
           style="fill:#000000"
           id="path294"
           d="m 6303.8484,3198.4408 19.2,-57.6 c 68,69.6 76,165.6 64,248 -4,30.4 -25.6,88 -59.2,141.6 -34.4,56 -81.6,107.2 -112,132 -12,10.4 -32.8,36.8 -47.2,40.8 -3.2,0.8 -6.4,-4.8 -9.6,-7.2 -9.6,-10.4 60.8,-88.8 76,-106.4 52,-60 64,-84.8 99.2,-147.2 30.4,-52.8 20.8,-240 -30.4,-244 z"
           class="fil3" /><path
           inkscape:connector-curvature="0"
           style="fill:#000000"
           id="path296"
           d="m 6344.6484,3493.6408 28,-64.8 c 7.2,28 16.8,108 13.6,136 -4,35.2 -9.6,76 -24,107.2 -24.8,58.4 -51.2,108.8 -140.8,161.6 -16,9.6 -56,36 -71.2,42.4 -4.8,2.4 -18.4,4 -23.2,6.4 -12,6.4 -24.8,-9.6 0,-26.4 110.4,-74.4 258.4,-144.8 217.6,-362.4 z"
           class="fil3" /><path
           inkscape:connector-curvature="0"
           style="fill:#000000"
           id="path298"
           d="m 6301.4484,3755.2408 42.4,-56 c 11.2,164 -70.4,255.2 -131.2,284.8 -12.8,6.4 -22.4,4.8 -30.4,-4 -22.4,-21.6 148,-89.6 119.2,-224.8 z"
           class="fil3" /><path
           inkscape:connector-curvature="0"
           style="fill:#000000"
           id="path300"
           d="m 5535.8484,5866.4408 21.6,-78.4 c -151.2,-344.8 -193.6,-476.8 -206.4,-576.8 -3.2,-28 -8.8,-83.2 -8,-110.4 3.2,-89.6 8.8,-158.4 24,-232 29.6,-147.2 122.4,-344 217.6,-461.6 68,-82.4 190.4,-202.4 246.4,-246.4 44,-35.2 137.6,-82.4 227.2,-39.2 55.2,26.4 77.6,100.8 69.6,155.2 87.2,-25.6 160.8,-156.8 137.6,-216 -42.4,-110.4 -163.2,-156 -236,-85.6 72.8,-4 88.8,-3.2 112.8,5.6 52,20.8 83.2,56.8 86.4,114.4 3.2,38.4 -37.6,111.2 -68,130.4 13.6,-85.6 -73.6,-160 -158.4,-160 -108.8,0 -142.4,18.4 -224.8,74.4 -236,204 -439.2,500 -470.4,821.6 -7.2,73.6 -16.8,200 4.8,310.4 8,41.6 13.6,61.6 27.2,95.2 21.6,53.6 67.2,183.2 90.4,240.8 11.2,27.2 104.8,234.4 106.4,258.4 z"
           class="fil3" /><path
           inkscape:connector-curvature="0"
           style="fill:#000000"
           id="path302"
           d="m 5991.8484,6160.0408 54.4,14.4 c 24.8,-12 89.6,-60.8 120.8,-98.4 48.8,-59.2 72,-117.6 72,-181.6 l -36.8,16.8 c 1.6,44 -32,103.2 -61.6,137.6 -19.2,21.6 -121.6,101.6 -148.8,111.2 z"
           class="fil3" /><path
           inkscape:connector-curvature="0"
           style="fill:#000000"
           id="path304"
           d="m 6317.4484,5673.6408 39.2,-22.4 c 0,92.8 -15.2,161.6 -68.8,212 -58.4,54.4 -95.2,66.4 -157.6,96.8 -8.8,4 -65.6,32.8 -94.4,44 -10.4,4 -20.8,-4 -11.2,-14.4 65.6,-69.6 150.4,-70.4 209.6,-128 48,-46.4 86.4,-92.8 83.2,-188 z"
           class="fil3" /><path
           inkscape:connector-curvature="0"
           style="fill:#000000"
           id="path306"
           d="m 6406.2484,5391.2408 23.2,-40.8 c 35.2,70.4 -5.6,208.8 -36.8,260.8 -33.6,56.8 -96,100 -160,126.4 -16.8,6.4 -72,36 -84,48.8 -39.2,38.4 -54.4,28 -35.2,0 5.6,-7.2 24,-21.6 33.6,-31.2 16,-15.2 45.6,-28.8 79.2,-48 46.4,-27.2 96.8,-61.6 121.6,-97.6 31.2,-46.4 59.2,-97.6 59.2,-216.8 0,-0.8 0,-1.6 -0.8,-1.6 z"
           class="fil3" /><path
           inkscape:connector-curvature="0"
           style="fill:#000000"
           id="path308"
           d="m 6466.2484,5122.4408 34.4,-48 c 45.6,123.2 -32.8,286.4 -129.6,356.8 -60.8,43.2 -121.6,75.2 -147.2,92.8 -14.4,11.2 -27.2,24.8 -35.2,28.8 -12,5.6 -16,2.4 -8.8,-18.4 2.4,-7.2 32.8,-31.2 106.4,-81.6 60.8,-40 62.4,-42.4 100.8,-81.6 32,-32 56,-67.2 72,-108.8 5.6,-14.4 32.8,-108 7.2,-140 z"
           class="fil3" /><path
           inkscape:connector-curvature="0"
           style="fill:#000000"
           id="path310"
           d="m 6476.6484,4856.0408 23.2,-55.2 c 69.6,130.4 22.4,243.2 -32.8,340.8 -54.4,96.8 -200,143.2 -280.8,206.4 -4,3.2 -12.8,-4.8 -12.8,-5.6 36,-68.8 204.8,-120 243.2,-185.6 28,-48 60,-102.4 73.6,-147.2 8.8,-28.8 21.6,-128.8 -13.6,-153.6 z"
           class="fil3" /><path
           inkscape:connector-curvature="0"
           style="fill:#000000"
           id="path312"
           d="m 6497.4484,4601.6408 c 31.2,37.6 32.8,146.4 17.6,191.2 -20,58.4 -36,88 -84,139.2 -19.2,21.6 -124,93.6 -148,110.4 -16,10.4 -37.6,30.4 -50.4,36 -16.8,7.2 -9.6,-3.2 -9.6,-12.8 -0.8,-19.2 113.6,-79.2 192.8,-156.8 25.6,-24.8 48,-73.6 58.4,-103.2 12,-32.8 17.6,-67.2 19.2,-101.6 1.6,-25.6 1.6,-36.8 -3.2,-38.4 -1.6,-0.8 -6.4,-0.8 -8.8,0 -11.2,6.4 -27.2,36.8 -40.8,48 -52.8,45.6 -110.4,74.4 -175.2,122.4 -41.6,30.4 -60.8,47.2 -69.6,56 -12,12.8 -14.4,-12.8 -6.4,-28 12,-23.2 33.6,-44.8 76,-71.2 42.4,-28 87.2,-64.8 129.6,-92.8 56.8,-36.8 75.2,-87.2 102.4,-98.4 z"
           class="fil3" /><path
           inkscape:connector-curvature="0"
           style="fill:#000000"
           id="path314"
           d="m 6209.4484,4872.0408 9.6,-25.6 c -2.4,-65.6 -8,-134.4 -29.6,-187.2 -44,-108 -70.4,-168 -127.2,-263.2 -49.6,-84 -130.4,-218.4 -201.6,-273.6 l -34.4,24 c 70.4,59.2 192,239.2 233.6,330.4 30.4,68 87.2,157.6 105.6,233.6 7.2,32.8 14.4,55.2 17.6,101.6 3.2,37.6 0.8,66.4 3.2,79.2 1.6,12.8 9.6,8 23.2,-19.2 z"
           class="fil3" /><path
           inkscape:connector-curvature="0"
           style="fill:#000000"
           id="path316"
           d="m 5826.2484,5800.0408 -18.4,184 c 3.2,8 56.8,-160.8 64,-184 21.6,-68.8 36.8,-147.2 49.6,-221.6 8.8,-56 28,-146.4 40,-238.4 12,-92 16,-184.8 18.4,-246.4 12.8,-289.6 -135.2,-723.2 -296.8,-813.6 l -28.8,29.6 c 193.6,163.2 279.2,485.6 283.2,770.4 3.2,171.2 -24,292.8 -46.4,427.2 -10.4,60.8 -35.2,242.4 -64.8,292.8 z"
           class="fil3" /><path
           inkscape:connector-curvature="0"
           style="fill:#000000"
           id="path318"
           d="m 5346.2484,3564.8408 c -5.6,-29.6 -19.2,-145.6 -24.8,-192 -8,-67.2 -47.2,-131.2 -60,-181.6 -9.6,-40 -18.4,-85.6 -17.6,-132 1.6,-37.6 3.2,-121.6 21.6,-164.8 -80,52 -126.4,104.8 -152.8,244 -16.8,92.8 -5.6,148.8 12,232.8 6.4,30.4 56,134.4 80.8,148.8 4.8,0 10.4,-3.2 10.4,-12.8 -0.8,-5.6 -6.4,-15.2 -8.8,-24 -14.4,-40 -46.4,-108.8 -52.8,-142.4 -9.6,-56.8 -17.6,-172 -0.8,-234.4 6.4,-24 31.2,-92.8 58.4,-118.4 2.4,120 -4.8,196.8 45.6,312 23.2,52.8 28.8,72 41.6,127.2 8.8,33.6 16.8,100.8 20.8,129.6 4,37.6 28,15.2 26.4,8 z"
           class="fil3" /><path
           inkscape:connector-curvature="0"
           style="fill:#000000"
           id="path320"
           d="m 5655.0484,3968.0408 28.8,-36 c -79.2,-79.2 -175.2,-231.2 -179.2,-364 -0.8,-49.6 8,-83.2 35.2,-112 49.6,-52 114.4,12.8 132,4 -20.8,-36.8 -28.8,-136 -147.2,-157.6 -72,-13.6 -128.8,13.6 -166.4,55.2 -12,13.6 -25.6,35.2 -36,52.8 l 8.8,80.8 c 26.4,-61.6 43.2,-99.2 104.8,-140 56.8,-36.8 156,-4.8 176,58.4 -118.4,-39.2 -160.8,121.6 -138.4,211.2 13.6,57.6 48,118.4 60.8,172 5.6,24 108.8,175.2 120.8,175.2 z"
           class="fil3" /><path
           inkscape:connector-curvature="0"
           style="fill:#000000"
           id="path322"
           d="m 5118.2484,3169.6408 20.8,-92.8 c -75.2,64 -145.6,177.6 -130.4,304.8 13.6,114.4 149.6,296.8 187.2,308 5.6,1.6 11.2,-6.4 11.2,-13.6 -20.8,-23.2 -91.2,-132.8 -113.6,-165.6 -12,-17.6 -41.6,-89.6 -44.8,-111.2 -4,-27.2 -4,-55.2 -0.8,-84.8 5.6,-56 31.2,-92.8 70.4,-144.8 z"
           class="fil3" /><path
           inkscape:connector-curvature="0"
           style="fill:#000000"
           id="path324"
           d="m 5043.0484,3464.8408 -23.2,-52 c -52,59.2 -43.2,189.6 -20,247.2 29.6,74.4 117.6,140 195.2,172.8 20.8,8.8 36.8,-15.2 -1.6,-35.2 -46.4,-23.2 -113.6,-62.4 -148.8,-127.2 -45.6,-82.4 -33.6,-164 -1.6,-205.6 z"
           class="fil3" /><path
           inkscape:connector-curvature="0"
           style="fill:#000000"
           id="path326"
           d="m 5064.6484,3736.8408 -35.2,-40 c -24,82.4 -12.8,128.8 -0.8,169.6 19.2,62.4 113.6,133.6 192.8,131.2 11.2,0 16.8,0.8 26.4,-2.4 7.2,-1.6 10.4,-8.8 0,-13.6 -13.6,-7.2 -42.4,-8.8 -65.6,-16.8 -37.6,-13.6 -82.4,-52.8 -103.2,-89.6 -20,-33.6 -40,-97.6 -14.4,-138.4 z"
           class="fil3" /><path
           inkscape:connector-curvature="0"
           style="fill:#000000"
           id="path328"
           d="m 5479.0484,4169.6408 -29.6,22.4 c -16.8,-12.8 -67.2,-56 -108,-65.6 -30.4,-7.2 -91.2,-8.8 -117.6,4 -60,28 -48,90.4 -48,139.2 0,16.8 -77.6,-46.4 -88.8,-59.2 -26.4,-31.2 -49.6,-80.8 -52,-110.4 -5.6,-75.2 8,-127.2 85.6,-140.8 l 105.6,36 c -36.8,1.6 -78.4,-4 -88,0 -50.4,23.2 -64,62.4 -64,100 -0.8,32 25.6,108.8 59.2,112 -5.6,-76.8 78.4,-119.2 137.6,-120.8 68.8,-0.8 155.2,31.2 208,83.2 z"
           class="fil3" /></g><g
         id="text4173"
         style="font-style:normal;font-variant:normal;font-weight:bold;font-stretch:normal;font-size:10522.80078125px;line-height:125%;font-family:monospace;-inkscape-font-specification:'monospace Bold';letter-spacing:0px;word-spacing:0px;fill:#ffffff;fill-opacity:1;stroke:#000000;stroke-width:70.15200043;stroke-linecap:butt;stroke-linejoin:miter;stroke-miterlimit:4;stroke-dasharray:none;stroke-opacity:1"><path
           style="color:#000000;font-style:normal;font-variant:normal;font-weight:normal;font-stretch:normal;font-size:medium;line-height:125%;font-family:monospace;-inkscape-font-specification:'monospace Bold';text-indent:0;text-align:start;text-decoration:none;text-decoration-line:none;text-decoration-style:solid;text-decoration-color:#000000;letter-spacing:0px;word-spacing:0px;text-transform:none;direction:ltr;block-progression:tb;writing-mode:lr-tb;baseline-shift:baseline;text-anchor:start;white-space:normal;clip-rule:nonzero;display:inline;overflow:visible;visibility:visible;opacity:1;isolation:auto;mix-blend-mode:normal;color-interpolation:sRGB;color-interpolation-filters:linearRGB;solid-color:#000000;solid-opacity:1;fill:#000000;fill-opacity:1;fill-rule:nonzero;stroke:none;stroke-width:70.15200043;stroke-linecap:butt;stroke-linejoin:miter;stroke-miterlimit:4;stroke-dasharray:none;stroke-dashoffset:0;stroke-opacity:1;color-rendering:auto;image-rendering:auto;shape-rendering:auto;text-rendering:auto;enable-background:accumulate"
           d="m 5728.0193,7224.1183 561.0812,1649.4454 -1280.0531,0 -902.3921,-2638.6875 -1027.2751,2638.6875 -1280.85,0 1700.3938,-4422.6782 -165.2251,-479.5578 -0.028,-0.08 c -67.4254,-199.5791 -153.1768,-336.9066 -253.4421,-414.1062 -98.2516,-72.93 -275.2113,-113.5078 -529.7344,-113.5078 l -488.4344,0 0,-1022.0813 0,-3e-4 644.6313,0 c 502.54,0 888.6606,101.9768 1155.8437,310.0984 l 0.095,0.074 0.094,0.075 c 309.3278,245.233 544.9777,609.3876 707.9154,1089.8962 l 0.01,0.025 649.5666,1930.555 c 180.2254,422.5192 291.5216,784.9322 591.4559,1080.64 216.878,209.7034 355.5377,7.1086 327.0947,-201.41 l 58.0711,3.5543 c 14.2215,156.389 -21.3322,257.0939 -113.772,324.6255 -117.3274,85.3032 -267.8384,-28.4343 -319.9839,-80.564 -34.3686,-33.1734 -125.6234,-130.324 -155.2515,-174.1604 -201.4713,-295.0064 -289.8438,-618.2282 -438.9936,-932.138 l -651.3326,-1933.0665 -0.01,-0.014 C 4357.092,3366.6863 4126.9253,3012.9163 3827.9584,2775.859 3574.4838,2578.4594 3201.5679,2477.6746 2706.6912,2477.6746 l -588.5094,0 0,909.8391 432.3125,0 c 260.475,0 447.9011,38.8348 563.4359,124.7453 l 0.1828,0.1375 0.1828,0.139 c 113.4135,87.2411 202.9894,234.8644 272.5454,440.75 l 171.8046,498.6532 -1678.4125,4365.5047 1160.7704,0 1069.064,-2746.0266 939.0984,2746.0266 1161.5657,0 -535.8453,-1575.2516"
           id="path4178"
           inkscape:connector-curvature="0"
           sodipodi:nodetypes="ccccccccccscccsccccccccccccccccsccsccccccccccc" /></g></g></g></svg>