<?xml version="1.0" encoding="UTF-8" standalone="no"?>
<!-- Created with Sodipodi ("http://www.sodipodi.com/") -->

<svg
   xmlns:dc="http://purl.org/dc/elements/1.1/"
   xmlns:cc="http://creativecommons.org/ns#"
   xmlns:rdf="http://www.w3.org/1999/02/22-rdf-syntax-ns#"
   xmlns:svg="http://www.w3.org/2000/svg"
   xmlns="http://www.w3.org/2000/svg"
   xmlns:sodipodi="http://sodipodi.sourceforge.net/DTD/sodipodi-0.dtd"
   xmlns:inkscape="http://www.inkscape.org/namespaces/inkscape"
   xml:space="preserve"
   width="1920"
   height="1080"
   style="fill-rule:evenodd"
   viewBox="0 0 15487.377 10101.889"
   id="svg2"
   sodipodi:version="0.32"
   inkscape:version="0.91 r13725"
   sodipodi:docname="coat3.svg"
   inkscape:output_extension="org.inkscape.output.svg.inkscape"
   version="1.1"
   inkscape:export-filename="/home/jakub/coat3.png"
   inkscape:export-xdpi="192"
   inkscape:export-ydpi="192"><metadata
     id="metadata333"><rdf:RDF><cc:Work
         rdf:about=""><dc:format>image/svg+xml</dc:format><dc:type
           rdf:resource="http://purl.org/dc/dcmitype/StillImage" /><dc:title></dc:title></cc:Work></rdf:RDF></metadata><sodipodi:namedview
     inkscape:window-height="1013"
     inkscape:window-width="1920"
     inkscape:pageshadow="2"
     inkscape:pageopacity="1"
     borderopacity="1.0"
     bordercolor="#666666"
     pagecolor="#ba2b1a"
     id="base"
     inkscape:zoom="0.45254834"
     inkscape:cx="963.07497"
     inkscape:cy="275.64097"
     inkscape:window-x="0"
     inkscape:window-y="0"
     inkscape:current-layer="g3378"
     showgrid="false"
     inkscape:window-maximized="1"
     fit-margin-top="0"
     fit-margin-left="-540.1"
     fit-margin-right="0"
     fit-margin-bottom="0"
     inkscape:object-nodes="false"
     inkscape:snap-intersection-paths="false"
     inkscape:object-paths="false"
     showborder="true"
     showguides="true"
     inkscape:snap-smooth-nodes="false"
     inkscape:snap-midpoints="false"
     inkscape:guide-bbox="true"
     inkscape:snap-bbox="true"
     inkscape:bbox-paths="false"
     inkscape:bbox-nodes="true"
     inkscape:snap-bbox-edge-midpoints="false"
     inkscape:snap-bbox-midpoints="false"
     inkscape:snap-object-midpoints="false"
     inkscape:snap-center="true"
     inkscape:snap-text-baseline="true"
     inkscape:snap-page="false"
     borderlayer="false"
     inkscape:snap-grids="true"
     inkscape:snap-to-guides="true"
     inkscape:snap-others="true"
     inkscape:snap-nodes="false"
     inkscape:snap-global="true"><sodipodi:guide
       position="0,0"
       orientation="0,1"
       id="guide3468" /><sodipodi:guide
       position="0,0"
       orientation="1,0"
       id="guide3421" /><sodipodi:guide
       position="15487.377,0"
       orientation="1,0"
       id="guide3427"
       inkscape:label=""
       inkscape:color="rgb(0,0,255)" /><sodipodi:guide
       position="7985.6788,5050.9443"
       orientation="1,0"
       id="guide3431"
       inkscape:label=""
       inkscape:color="rgb(0,0,255)" /><sodipodi:guide
       position="7985.6788,5050.9445"
       orientation="0,1"
       id="guide3433"
       inkscape:label=""
       inkscape:color="rgb(0,0,255)" /><sodipodi:guide
       position="0,10101.889"
       orientation="0,1"
       id="guide4184"
       inkscape:label=""
       inkscape:color="rgb(0,0,255)" /></sodipodi:namedview><defs
     id="defs4"><inkscape:perspective
       sodipodi:type="inkscape:persp3d"
       inkscape:vp_x="0 : 625.00004 : 1"
       inkscape:vp_y="0 : 1000 : 0"
       inkscape:vp_z="1025 : 625.00004 : 1"
       inkscape:persp3d-origin="512.50001 : 416.66671 : 1"
       id="perspective170" /><style
       type="text/css"
       id="style6">
   
    .str3 {stroke:#000000;stroke-width:21;stroke-linecap:round}
    .str1 {stroke:#000000;stroke-width:42}
    .str2 {stroke:#000000;stroke-width:42;stroke-linecap:round}
    .str0 {stroke:#000000;stroke-width:56}
    .fil4 {fill:none}
    .fil5 {fill:#1F1A17}
    .fil3 {fill:#000000}
    .fil0 {fill:#BA2B1A}
    .fil1 {fill:#E9CC0C}
    .fil2 {fill:#FFFFFF}
   
  </style></defs><g
     id="Layer 2"
     transform="translate(-64.536428,-1515.5148)" /><g
     id="g3378"
     transform="translate(245.75947,-178.6484)"
     inkscape:transform-center-x="-624.20871"
     inkscape:transform-center-y="-617.99585"><rect
       style="fill:#ba2b1a;fill-opacity:1;stroke:none;stroke-opacity:1"
       id="rect4370"
       width="17958.912"
       height="10101.889"
       x="-1481.5273"
       y="178.64841" /><g
       id="g4258"
       inkscape:transform-center-x="-583.60871"
       inkscape:transform-center-y="-76.432526"><path
         inkscape:connector-curvature="0"
         style="fill:#e9cc0c"
         id="path18"
         d="m 5740.3807,1746.8022 -85.9217,22.2143 127.401,253.2435 96.2915,527.2203 1239.9377,2.962 60.7376,-402.8201 151.1036,-413.1867 -100.7357,10.3667 -180.7317,161.4242 -140.7336,16.2905 -54.8121,34.062 -161.4734,-94.7812 -50.3678,-41.4668 -102.2171,-183.6385 -117.0311,4.4429 -158.5106,208.8148 -106.6613,35.5429 -57.7749,74.0478 -130.3638,-78.4907 -65.1819,1.481 -162.9547,-137.7289 z"
         class="fil1" /><path
         inkscape:connector-curvature="0"
         style="fill:#000000"
         id="path102"
         d="m 5918.1495,2552.4423 -80.373,4.3076 c 0,-71.0859 -17.3999,-142.0366 -23.3255,-205.7177 -5.9256,-68.1239 -20.7397,-183.6385 -42.9608,-268.053 -41.4794,-145.1337 -197.0271,-339.1389 -125.9196,-355.4294 119.994,-29.6192 207.397,31.1 279.9859,130.3241 34.0724,0 121.4754,-1.481 158.5106,71.0859 38.5166,-71.0859 93.3286,-99.2241 159.9919,-102.186 11.8513,-25.1762 22.2211,-50.3525 29.6282,-62.2001 39.998,-66.6431 109.6241,-173.2719 198.5085,-168.829 90.3658,2.9619 127.401,48.8715 167.399,122.9193 17.7769,35.543 32.591,81.4526 38.5166,118.4765 50.3678,-5.9238 81.4774,5.9238 109.6241,17.7715 20.7397,8.8857 56.2935,44.4287 69.6261,69.6049 17.7769,-29.6191 31.1096,-44.4287 63.7005,-53.3144 32.591,-8.8857 35.5538,-13.3286 117.0312,1.4809 39.998,-50.3525 87.403,-88.8573 143.6965,-125.8812 32.5909,-20.7334 62.2191,-35.543 102.217,-44.4287 48.8865,-10.3667 91.8473,1.481 85.9217,23.6953 -8.8885,35.5429 -63.7005,119.9574 -90.3659,196.9672 -63.7005,182.1575 -128.8824,410.2248 -136.2894,616.0776 l -62.2191,-1.4809 c 17.7769,-185.1195 57.7749,-393.9343 115.5497,-559.8014 22.2211,-68.124 45.9237,-121.4384 82.9588,-186.6004 -4.4442,-51.8335 -136.2894,56.2763 -167.399,94.7812 -19.2583,23.6952 -32.5909,84.4144 -66.6633,65.162 -42.9608,-23.6953 -62.2191,-28.1381 -103.6985,2.9619 -51.8492,51.8335 -57.7748,60.7192 -54.812,130.3242 1.4814,28.1381 23.7025,53.3144 34.0723,63.6811 10.3699,11.8476 41.4794,39.9858 94.8101,48.8715 14.814,2.9619 0,42.9477 -5.9256,44.4287 -37.0352,10.3667 -87.4031,-16.2905 -108.1428,-28.1382 -19.2583,-10.3667 -57.7748,-32.581 -84.4402,-62.2001 -41.4794,22.2143 -99.2542,50.3525 -134.808,60.7192 -42.9608,11.8476 -75.5518,-2.9619 -51.8492,-29.6191 22.2211,-25.1763 50.3678,-25.1763 78.5145,-35.543 28.1468,-10.3667 50.3679,-31.1001 72.589,-77.0097 10.3698,-22.2143 23.7025,-50.3525 8.8884,-106.6288 -5.9256,-25.1763 -53.3306,-56.2764 -82.9588,-62.2002 -17.7769,-2.9619 -53.3306,-4.4429 -65.1819,-16.2905 -19.2583,-22.2143 -25.1839,-31.1001 -28.1467,-53.3144 -1.4814,-25.1763 -10.3699,-47.3906 -19.2583,-65.1621 -19.2583,-38.5048 -59.2563,-102.1859 -112.5869,-102.1859 -37.0352,0 -85.9216,44.4286 -119.994,90.3383 -26.6653,37.0239 -39.998,79.9716 -62.2191,112.5526 -1.4814,2.9619 -11.8513,29.6191 -42.9608,28.1382 -56.2935,-8.8857 -109.6241,17.7715 -111.1055,122.9193 0,69.605 2.9628,66.6431 34.0723,102.186 37.0352,39.9858 78.5146,53.3144 108.1427,71.0859 11.8513,8.8857 -2.9628,37.0239 -19.2582,37.0239 -26.6654,1.4809 -78.5146,-13.3286 -103.6985,-29.6191 -29.6282,-19.2525 -39.998,-51.8335 -60.7377,-62.2002 -42.9608,4.4429 -71.1076,81.4526 -159.992,99.2241 -75.5517,14.8095 -28.1467,-37.0239 -2.9628,-66.6431 63.7005,-75.5287 136.2894,-48.8715 106.6613,-192.5242 -8.8884,-50.3525 -82.9588,-53.3144 -131.8452,-54.7954 -59.2563,-2.9619 -54.8121,-77.0097 -125.9196,-116.9955 -44.4422,-26.6572 -54.8121,-22.2144 -79.996,-17.7715 -25.1839,4.4429 7.407,60.7192 19.2583,74.0478 19.2583,20.7334 25.1839,29.6191 35.5538,51.8335 16.2954,32.581 28.1467,74.0478 38.5166,99.224 2.9628,5.9238 13.3326,31.1001 28.1467,103.6669 14.8141,94.7812 22.2211,119.9575 42.9608,223.6244 11.8512,65.1621 29.6281,137.7289 42.9608,213.2577 z"
         class="fil3"
         sodipodi:nodetypes="ccccccccccccccsccccccccccccccccccccscccccssccccccccccccccscccccc" /><path
         inkscape:connector-curvature="0"
         style="fill:#ffffff"
         id="path14"
         d="m 8014.9205,3312.1828 -235.393,-290.6768 -317.1213,-311.3379 -408.2743,-174.6087 -461.8935,-80.7749 -861.7069,-33.2325 0,1022.0814 848.1747,-20.4845 266.9361,146.4671 381.475,882.3225 -1678.4123,4365.5048 1160.7702,0 1069.064,-2746.0266 939.0986,2746.0266 1161.5656,0 -535.8454,-1575.2518 232.7803,167.7041 257.1723,324.6255 61.6265,238.1378 -5.9256,264.2025 165.9175,-239.3225 60.441,-232.2139 -60.441,-293.8216 220.433,97.1507 287.986,-30.8039 269.023,-103.0745 36.739,-49.7602 -220.433,-30.8039 -380.425,-116.1069 287.985,-127.9546 159.992,-312.7779 -159.992,98.3355 -293.911,116.1069 -146.956,85.3031 98.366,-238.1377 17.777,-245.2464 132.734,-62.7925 136.289,-171.7909 37.924,-127.9546 199.101,-161.128 69.923,-229.8444 148.141,-157.5737 21.332,-206.1491 90.069,-131.5089 22.518,-287.8978 92.44,-150.4651 9.481,-278.4198 46.219,-184.8233 -46.219,-184.8233 34.368,-191.9319 -34.368,-77.0097 -124.439,119.6613 -287.985,214.4424 -47.405,-266.5721 -205.027,-415.8524 -208.582,-305.6694 -90.07,-98.3354 -257.1719,251.1701 264.2829,329.3646 161.177,558.0242 -5.925,573.4262 -127.994,745.2171 -59.256,4.739 -69.923,-310.4084 -165.9172,-209.7033 -27.2579,193.1166 -133.9192,375.5705 -299.8368,-685.9788 -48.5901,-434.8087 54.5157,-401.6353 176.5838,-407.5591 273.764,-369.6466 261.9127,-232.2139 218.063,-42.6515 199.101,77.0097 40.295,165.8671 68.737,-31.9887 97.18,-200.2252 -92.44,-158.7585 150.511,-144.5413 53.331,-295.0065 56.886,-117.2917 -17.777,-264.2025 23.703,-162.3128 -95.996,-283.1588 -30.813,-213.2577 -63.997,-42.6515 -124.438,270.1264 -137.474,252.3549 -39.11,103.0745 -111.401,-132.6936 -209.768,8.2933 -119.697,142.1718 170.658,34.3582 86.514,93.5964 13.036,167.0518 -94.81,240.5073 -304.577,325.8103 -493.0122,622.0015 -231.0995,483.3841 -55.7009,227.4748 -155.2515,-119.6612 -114.9572,-50.9449 -86.5141,-81.7488 -55.7009,158.7585 65.1819,222.7358 -47.4051,140.987 81.7737,227.4748 -30.8133,154.0194 98.3655,171.7909 9.481,227.4749 114.9572,180.0842 60.4414,257.094 137.4745,145.7261 63.9968,167.0518 209.7672,137.4327 68.7373,157.5737 176.5837,150.4652 63.9968,21.3257 -34.3686,235.7682 -116.1423,90.0421 L 9519.2523,6919.403 9193.3427,6529.6153 8961.55,6061.0859 8780.0995,5429.5445 8563.9043,4786.998 8239.111,3821.6954"
         class="fil2"
         sodipodi:nodetypes="ccccccccccccccccccccccccccccccccccccccccccccccccccccccccccccccccccccccccccccccccccccccccccccccccccccccccccccccccccccccccccccccc" /><path
         inkscape:connector-curvature="0"
         style="fill:#ffffff"
         id="path16"
         d="m 9683.9847,3352.0762 295.0963,-347.1361 -180.1391,-261.8331 -86.5141,-238.1377 0,-190.7471 105.4761,-104.2593 109.0316,23.6953 -52.1455,-119.6613 -138.6597,-56.8687 -132.7341,28.4344 -129.1787,152.8346 -33.1835,-81.7487 -85.329,-252.3549 -23.7026,-228.6596 0,-180.0843 -114.9571,142.1718 -47.4051,171.7909 -123.253,133.8784 -28.443,203.7795 28.443,100.7051 -62.8117,75.8249 4.7405,200.2253 72.2927,127.9546 -28.443,110.1831 33.1835,133.8784 94.81,118.4765 -94.81,113.7374 9.481,152.8347 52.1455,90.0421 85.3291,62.7925 23.7025,-152.8346 148.1407,-56.8687 167.1027,33.1734 132.734,94.7812 z"
         class="fil2" /><path
         inkscape:connector-curvature="0"
         style="fill:none;stroke:#000000;stroke-width:62.20962143;stroke-linecap:round"
         id="path104"
         d="m 6368.4972,2348.0703 752.5548,10.3667"
         class="fil4 str2" /><path
         inkscape:connector-curvature="0"
         style="fill:#000000"
         id="path248"
         d="m 9343.358,7242.1915 c 141.03,126.7699 84.6396,58.7057 216.1886,190.2146 125.6233,125.5851 220.4333,253.5397 277.3194,425.3306 24.8876,88.8573 21.3322,191.9319 21.3322,291.4521 0,41.4668 -43.8496,188.3776 36.7389,107.8136 92.4398,-92.4116 132.7339,-163.4975 190.8049,-277.2349 18.962,-40.282 45.035,-127.9546 47.405,-175.3452 1.185,-39.0973 2.371,-81.7488 0,-119.6613 -3.555,-43.8363 -26.072,-106.6288 -30.813,-132.6936 0,-39.0973 31.998,-15.402 50.96,-2.3696 36.739,24.8801 116.143,43.8363 146.956,43.8363 49.775,0 103.106,0 149.326,-7.1086 105.476,-10.6628 207.397,-33.1734 298.652,-78.1944 39.109,-20.141 84.143,-39.0973 114.957,-69.9012 14.221,-14.2171 27.258,-30.8038 41.479,-45.021 1.185,-2.3695 5.926,-7.1086 10.666,-16.5867 1.185,-2.3696 14.222,-27.2496 14.222,-28.4344 -24.888,-1.1847 -42.665,9.4781 -67.552,8.2934 -154.067,-7.1086 -349.612,-60.423 -470.495,-104.2593 -56.886,-20.141 137.474,-104.2593 162.362,-124.4003 43.85,-34.3582 66.367,-68.7164 90.069,-112.5527 10.667,-18.9562 58.072,-117.2917 61.627,-130.3241 5.926,-22.5105 28.443,-66.3468 31.998,-92.4117 3.556,-24.88 3.556,-40.282 -4.74,-45.021 -31.998,-14.2172 -133.919,86.4878 -205.027,124.4003 -54.516,30.8039 -145.77,66.3468 -222.803,90.0421 -55.701,17.7715 -101.921,53.3144 -113.772,61.6078 7.11,-60.423 39.109,-138.6175 52.145,-194.3015 16.592,-67.5316 15.407,-129.1393 14.222,-196.6709 l -63.997,-4.7391 c 0,154.0194 -23.703,361.3533 -109.032,464.4278 -13.036,16.5867 -30.813,49.7601 -22.517,60.423 4.74,5.9239 20.147,1.1848 40.294,-15.4019 87.699,-69.9011 227.544,-144.5413 410.054,-184.8233 26.072,-5.9238 63.996,-28.4344 91.254,-46.2058 1.185,-1.1848 63.997,-67.5316 49.775,-33.1735 -58.071,142.1718 -113.772,231.0292 -273.764,297.376 -65.181,26.0648 -150.51,48.5754 -220.433,63.9773 -98.365,21.3258 -88.884,41.4668 -41.479,45.0211 50.96,3.5543 145.77,-2.3696 176.583,8.2933 81.774,23.6953 303.393,98.3355 400.573,114.9222 46.22,8.2934 80.588,0 85.329,8.2934 7.111,16.5867 -92.44,60.423 -136.29,74.6401 -129.178,41.4668 -280.874,66.3469 -411.238,36.7277 -80.589,-17.7714 -152.881,-58.0534 -188.435,-85.303 -42.665,-29.6191 -55.701,-87.6726 -85.3291,-122.0308 -16.5918,-18.9562 -34.3687,10.6629 -30.8133,10.6629 17.7769,41.4668 31.9984,87.6726 59.2563,124.4003 34.3691,49.7601 79.4031,148.0956 79.4031,225.1053 -1.185,49.7601 -1.185,99.5202 -4.74,150.4651 -3.556,39.0973 -21.332,94.7812 -27.258,110.1832 -10.666,22.5105 -49.7753,123.2155 -68.7374,146.9108 0,0 -28.443,47.3906 -42.6645,56.8687 -2.3702,-111.3679 3.5554,-260.6482 -41.4794,-351.8751 -50.9604,-103.0746 -97.1803,-174.1605 -183.6944,-290.2674 -66.3671,-88.8574 -241.2741,-226.0594 -301.7155,-273.4499"
         class="fil3"
         sodipodi:nodetypes="cscsscccccsccscscccccccccccccccccccccccccccccccccccccccc" /><path
         inkscape:connector-curvature="0"
         style="fill:#000000"
         id="path270"
         d="m 9507.401,6264.228 c -43.8496,13.0324 114.9572,358.9838 302.2071,380.3095 257.1719,3.5543 318.7989,14.2172 451.5329,1.1848 72.293,-31.9887 138.66,-88.8574 184.88,-143.3565 26.072,-30.8039 168.287,-240.5073 62.811,-239.3225 -158.807,0 -303.392,35.5429 -470.495,29.6191 -117.3271,-3.5543 -269.0232,-8.2934 -382.7953,-18.9563 -65.1819,-7.1085 -117.3274,-17.7714 -148.1407,-9.4781 z"
         class="fil3" /><path
         inkscape:connector-curvature="0"
         style="fill:#ffffff"
         id="path272"
         d="m 9566.6573,6322.2815 c 0,-8.2933 40.2943,4.7391 80.5886,8.2934 66.367,5.9238 173.0283,18.9562 219.2482,18.9562 144.5849,-1.1848 293.9109,-4.7391 437.3109,-11.8477 52.146,-2.3695 112.587,-14.2171 156.437,-23.6952 91.255,-20.1411 -72.293,175.3451 -117.327,219.1814 -22.518,21.3258 -65.182,46.2059 -110.217,53.3145 -113.772,17.7714 -274.9492,5.9238 -350.7973,9.4781 -130.3638,7.1086 -319.9839,-175.3452 -315.2434,-273.6807 z"
         class="fil2" /><path
         inkscape:connector-curvature="0"
         style="fill:#000000"
         id="path274"
         d="m 10168.701,6092.4371 c 20.147,-49.7601 39.109,-122.0307 43.85,-187.1928 5.925,-61.6078 8.296,-130.3241 8.296,-195.4862 0,-154.0194 -74.663,-362.538 -169.473,-469.1669 -97.1806,-106.6288 -107.8467,-111.3678 -111.4021,34.3582 -3.5554,126.7699 -98.3654,270.1264 -139.8448,412.2982 -18.9621,61.6077 -91.2547,271.3111 21.3322,396.8962 74.6629,8.2933 18.962,-84.1183 14.2215,-122.0308 -8.2959,-56.8687 -11.8512,-105.4441 1.1852,-158.7585 39.1091,-168.2366 142.215,-340.0275 152.8812,-524.8508 1.1851,-3.5543 2.3702,-9.4781 14.2218,4.7391 74.663,86.4878 155.251,212.0729 163.547,396.8962 3.555,80.564 -2.37,162.3128 -15.407,241.692 -8.296,55.6839 -26.072,132.6937 -28.443,163.4975 -1.185,13.0325 23.703,17.7715 45.035,7.1086 z"
         class="fil3" /><g
         transform="matrix(1.481407,0,0,1.480956,1576.7651,-2850.228)"
         id="g276"><path
           inkscape:connector-curvature="0"
           sodipodi:nodetypes="ccccccccccccccccccccccccccccccccccccccccccccccccc"
           style="fill:#000000"
           id="path278"
           d="m 5729.4484,5538.4408 c -0.8,-4.8 2.4,-10.4 7.2,-11.2 4.8,-1.6 9.6,0.8 10.4,6.4 l -17.6,4.8 z m 0,0 0,0 -17.6,4.8 0,0 17.6,-4.8 z m 0,0 c 1.6,11.2 2.4,22.4 3.2,33.6 l -18.4,2.4 c 0,-10.4 -0.8,-20.8 -2.4,-31.2 l 17.6,-4.8 z m 3.2,33.6 c 0,11.2 0,22.4 -0.8,33.6 l -17.6,0.8 c 0.8,-10.4 0.8,-21.6 0,-32 l 18.4,-2.4 z m -0.8,33.6 c -2.4,58.4 -17.6,116 -39.2,163.2 l -16,-10.4 c 20.8,-44 35.2,-97.6 37.6,-152 l 17.6,-0.8 z m -55.2,152.8 0,0 0,0 z m 15.2,10.4 -15.2,-9.6 15.2,9.6 z m 0.805,0 c -2.4,5.6 -5.605,12.8 -8.005,20 l -16.8,-5.6 c 3.2,-9.6 5.6,-18.4053 8.8,-24.8053 l 16.005,10.4053 z m -8.005,20 c -2.4,8 -4.8,17.6 -7.2,27.2 l -16.8,-4.8 c 2.4,-9.6 4.8,-19.2 7.2,-28 l 16.8,5.6 z m -7.2,27.2 c -10.4,48.8 -16.8,108.8 -14.4,128.8 l -17.6,4.8 c -2.4,-21.6 3.2,-86.4 15.2,-138.4 l 16.8,4.8 z m -14.4,128.8 c 0.8,4.8 -2.4,10.4 -7.2,11.2 -4.8,1.6 -9.6,-0.8 -10.4,-6.4 l 17.6,-4.8 z"
           class="fil3" /></g><path
         inkscape:connector-curvature="0"
         style="fill:#000000;fill-opacity:1"
         id="path280"
         d="m 9281.042,5975.1454 -68.7372,-26.0648 c 4.7405,78.1945 42.6645,157.5737 90.0695,216.812 41.4794,50.9448 68.7373,85.303 120.8828,118.4764 13.0364,8.2934 103.1059,52.1297 104.2911,48.5754 l 22.5174,-71.0859 c -53.3307,-8.2934 -144.5854,-67.5316 -178.954,-111.3679 -42.6645,-52.1296 -90.0696,-106.6288 -90.0696,-175.3452 z"
         class="fil5" /><path
         inkscape:connector-curvature="0"
         style="fill:#000000;fill-opacity:1"
         id="path282"
         d="m 9474.2175,6065.1875 c 1.1851,4.7391 -4.7405,27.2496 -13.0364,30.8039 -5.9256,1.1848 -74.6629,-58.0534 -112.5869,-69.9011 -40.2943,-13.0324 -110.2167,-22.5105 -148.1407,-46.2058 -43.8496,-24.8801 -99.5505,-105.4441 -143.4002,-215.6272 -17.7769,-46.2058 -26.0728,-103.0746 -20.1471,-181.269 l 54.5157,15.4019 c -4.7405,60.423 7.1108,123.2156 46.2199,207.3339 27.2579,55.6839 49.7753,103.0745 93.625,124.4003 55.7009,27.2495 136.2894,42.6515 170.6581,65.162 16.5917,11.8477 69.9224,47.3906 72.2926,69.9011 z"
         class="fil5" /><path
         inkscape:connector-curvature="0"
         style="fill:#000000;fill-opacity:1"
         id="path284"
         d="m 9347.4091,5744.1163 c 0,5.9238 -5.9257,23.6953 -15.4067,22.5105 -3.5553,-1.1848 -29.6281,-31.9886 -63.9967,-58.0535 -22.5174,-17.7714 -49.7753,-29.6191 -75.8481,-37.9124 -56.886,-20.141 -111.4018,-42.6516 -148.1407,-68.7164 -60.4414,-42.6515 -87.6993,-86.4878 -111.4018,-159.9432 -7.1107,-24.8801 -14.2215,-54.4992 -18.962,-85.3031 -7.1107,-52.1297 -8.2959,-108.9984 0,-193.1167 l 55.7009,21.3258 c -5.9256,43.8363 -10.6661,73.4554 -9.481,105.4441 0,41.4667 2.3703,71.0859 16.5918,117.2917 16.5917,56.8687 28.443,80.564 42.6645,99.5202 14.2215,18.9563 35.5538,30.8039 65.1819,52.1297 53.3306,37.9124 118.5126,54.4992 173.0283,80.564 35.5538,15.4019 90.0696,80.564 90.0696,104.2593 z"
         class="fil5" /><path
         inkscape:connector-curvature="0"
         style="fill:#000000"
         id="path286"
         d="m 8891.1357,4855.5427 -52.1455,-33.1734 c -22.5174,53.3144 -41.4794,136.2479 -24.8876,203.7795 15.4066,60.423 29.6281,98.3355 66.367,139.8023 58.0711,65.162 213.3226,127.9546 285.6153,172.9756 17.7768,10.6629 50.9604,48.5754 65.1819,67.5316 4.7405,5.9238 41.4794,-1.1848 2.3702,-67.5316 -48.5901,-82.9335 -219.2482,-122.0308 -282.0599,-196.6709 -23.7025,-28.4344 -69.9224,-87.6726 -77.0331,-126.7699 -7.1108,-45.021 0,-122.0307 16.5917,-159.9432 z"
         class="fil3" /><path
         inkscape:connector-curvature="0"
         style="fill:#000000"
         id="path288"
         d="m 8850.8415,4511.9609 -42.6646,-54.4992 c -26.0727,30.8039 -42.6645,117.2917 -45.0347,169.4214 -4.7405,100.705 75.848,238.1377 151.696,276.0502 20.1472,10.6629 79.4034,37.9124 130.3638,71.0859 31.9984,21.3257 68.7373,40.282 85.3291,54.4991 8.2959,5.9239 23.7025,-4.739 24.8876,-10.6628 8.2959,-24.8801 -54.5157,-72.2707 -124.4382,-107.8136 -63.9967,-33.1735 -125.6233,-69.9012 -143.4002,-94.7812 -59.2562,-74.6402 -92.4398,-212.0729 -36.7388,-303.2998 z"
         class="fil3" /><path
         inkscape:connector-curvature="0"
         style="fill:#000000"
         id="path290"
         d="m 8802.2513,4058.196 c -28.443,136.2479 -71.1075,222.7358 -26.0728,360.1685 31.9984,95.9659 79.4035,122.0307 142.2151,164.6823 29.6282,20.141 78.2183,40.282 114.9572,59.2382 13.0364,8.2934 88.8844,55.684 98.3654,58.0535 60.4414,-17.7715 -42.6645,-77.0097 -129.1787,-131.5089 -48.5901,-29.6191 -87.6993,-37.9125 -113.772,-63.9773 -43.8497,-42.6515 -71.5941,-127.905 -77.0332,-183.6385 -4.0425,-41.4221 -4.7405,-94.7812 3.5554,-136.248 1.1851,-4.7391 4.7405,-18.9562 9.481,-29.6191 7.1107,7.1086 42.6645,43.8363 85.329,67.5316 59.2563,33.1734 178.954,73.4554 223.9888,130.3241 30.8132,39.0972 49.7752,62.7925 67.5521,81.7488 9.481,10.6629 17.7769,2.3695 28.443,-20.141 10.6662,-21.3258 -53.3306,-91.2269 -69.9224,-108.9984 -77.0331,-85.3031 -117.3274,-79.3792 -209.7672,-124.4003 -125.6233,-62.7925 -107.8464,-120.846 -148.1407,-123.2155 z"
         class="fil3"
         sodipodi:nodetypes="cccccccsccccccccc" /><path
         inkscape:connector-curvature="0"
         style="fill:#000000"
         id="path292"
         d="m 9225.3411,4408.8864 -62.8116,-99.5203 c 28.443,-172.9757 157.6217,-459.6887 206.2118,-543.807 306.9476,-521.2965 600.8587,-792.6077 720.5567,-908.7146 118.512,-116.107 152.881,-174.1605 205.026,-274.8655 22.518,-45.021 112.587,-404.0048 -157.621,-372.0161 -37.924,4.739 -118.513,31.9886 -82.959,-45.0211 45.035,-99.5202 91.255,-139.8022 181.324,-176.5299 117.328,-48.5754 238.21,15.4019 298.652,107.8136 52.145,-263.0178 265.468,-390.9724 264.283,-663.4683 117.327,55.6839 155.251,201.41 155.251,358.9837 0,39.0972 -31.998,175.3452 -52.145,204.9643 -21.333,33.1734 -164.733,247.6159 -201.472,274.8655 -14.221,2.3695 -26.072,-5.9239 -16.591,-22.5106 27.258,-52.1296 106.661,-169.4213 117.327,-188.3776 50.96,-90.0421 87.699,-161.128 92.44,-264.2025 4.74,-80.564 -8.296,-168.2366 -43.85,-232.2139 -35.554,191.9319 -231.099,348.3208 -283.245,584.089 -3.555,13.0324 -17.777,161.128 -34.368,174.1604 -8.296,7.1086 -20.148,1.1848 -21.333,-26.0648 -4.74,-135.0632 7.111,-161.128 -77.033,-231.0291 -46.22,-39.0973 -143.4,-27.2496 -177.769,-16.5867 -39.109,10.6629 -100.735,59.2382 -109.031,91.2269 18.962,9.4781 71.107,9.4781 123.253,37.9124 78.218,41.4668 101.921,98.3355 112.587,178.8995 4.74,45.0211 5.925,81.7488 2.37,132.6937 -3.555,37.9125 -63.997,182.4538 -86.514,215.6272 -78.218,111.3679 -194.361,258.2787 -302.2072,345.9513 -30.8133,24.8801 -306.9475,337.658 -347.2418,402.82 -48.5902,71.0859 -113.7721,163.4976 -174.2135,264.2026 -93.6249,155.2042 -162.3622,317.5169 -208.5821,454.9497 -35.5538,108.9983 -61.6265,194.3014 -40.2943,235.7682 z"
         class="fil3" /><path
         inkscape:connector-curvature="0"
         style="fill:#000000"
         id="path294"
         d="m 10915.33,1886.5221 28.443,-85.3031 c 100.736,103.0746 112.587,245.2463 94.81,367.2771 -5.925,45.0211 -37.924,130.3241 -87.699,209.7034 -50.96,82.9335 -120.883,158.7585 -165.918,195.4862 -17.776,15.4019 -48.59,54.4992 -69.922,60.423 -4.74,1.1847 -9.481,-7.1086 -14.221,-10.6629 -14.222,-15.4019 90.069,-131.5089 112.586,-157.5737 77.034,-88.8574 94.81,-125.5851 146.956,-217.9967 45.035,-78.1945 30.813,-355.4295 -45.035,-361.3533 z"
         class="fil3" /><path
         inkscape:connector-curvature="0"
         style="fill:#000000"
         id="path296"
         d="m 10975.772,2323.7003 41.479,-95.9659 c 10.666,41.4667 24.888,159.9432 20.147,201.41 -5.925,52.1296 -14.221,112.5526 -35.554,158.7585 -36.738,86.4878 -75.848,161.128 -208.582,239.3224 -23.702,14.2172 -82.958,53.3145 -105.476,62.7926 -7.111,3.5543 -27.258,5.9238 -34.369,9.4781 -17.776,9.4781 -36.738,-14.2172 0,-39.0972 163.548,-110.1832 382.796,-214.4425 322.355,-536.6985 z"
         class="fil3" /><path
         inkscape:connector-curvature="0"
         style="fill:#000000"
         id="path298"
         d="m 10911.775,2711.1184 62.812,-82.9335 c 16.591,242.8767 -104.292,377.9399 -194.361,421.7762 -18.962,9.4781 -33.184,7.1086 -45.035,-5.9238 -33.183,-31.9886 219.248,-132.6937 176.584,-332.9189 z"
         class="fil3" /><path
         inkscape:connector-curvature="0"
         style="fill:#000000"
         id="path300"
         d="m 9777.6097,5837.7127 31.9984,-116.1069 c -223.9888,-510.6337 -286.8004,-706.1199 -305.7624,-854.2155 -4.7405,-41.4667 -13.0364,-123.2155 -11.8513,-163.4975 4.7405,-132.6937 13.0364,-234.5834 35.5538,-343.5818 43.8496,-217.9967 181.3242,-509.4489 322.3541,-683.6093 100.7357,-122.0308 282.0597,-299.7455 365.0187,-364.9076 65.182,-52.1296 203.842,-122.0307 336.576,-58.0534 81.773,39.0972 114.957,149.2803 103.106,229.8443 129.178,-37.9124 238.21,-232.2139 203.841,-319.8865 -62.811,-163.4975 -241.765,-231.0291 -349.612,-126.7698 107.847,-5.9238 131.549,-4.739 167.103,8.2934 77.033,30.8039 123.253,84.1183 127.993,169.4213 4.741,56.8687 -55.7,164.6823 -100.735,193.1167 20.147,-126.7698 -109.032,-236.953 -234.655,-236.953 -161.177,0 -210.952,27.2496 -333.02,110.1832 -349.6125,302.115 -650.6344,740.478 -696.8543,1216.7534 -10.6661,108.9984 -24.8876,296.1912 7.1108,459.6888 11.8513,61.6077 20.1471,91.2268 40.2943,140.987 31.9984,79.3792 99.5505,271.3111 133.9192,356.6142 16.5917,40.282 155.2514,347.1361 157.6217,382.679 z"
         class="fil3" /><path
         inkscape:connector-curvature="0"
         style="fill:#000000"
         id="path302"
         d="m 10453.131,6272.5214 80.589,21.3257 c 36.739,-17.7714 132.734,-90.0421 178.954,-145.726 72.292,-87.6726 106.661,-174.1604 106.661,-268.9416 l -54.516,24.88 c 2.371,65.1621 -47.405,152.8347 -91.254,203.7796 -28.443,31.9886 -180.139,150.4651 -220.434,164.6823 z"
         class="fil3" /><path
         inkscape:connector-curvature="0"
         style="fill:#000000"
         id="path304"
         d="m 10935.477,5552.1844 58.072,-33.1734 c 0,137.4327 -22.518,239.3225 -101.921,313.9626 -86.514,80.564 -141.03,98.3355 -233.47,143.3566 -13.036,5.9238 -97.18,48.5753 -139.845,65.162 -15.406,5.9239 -30.813,-5.9238 -16.592,-21.3257 97.181,-103.0746 222.804,-104.2593 310.503,-189.5624 71.108,-68.7163 127.994,-137.4327 123.253,-278.4197 z"
         class="fil3" /><path
         inkscape:connector-curvature="0"
         style="fill:#000000"
         id="path306"
         d="m 11067.026,5133.9624 34.369,-60.423 c 52.145,104.2593 -8.296,309.2236 -54.516,386.2333 -49.775,84.1183 -142.215,148.0956 -237.025,187.1929 -24.888,9.4781 -106.661,53.3144 -124.438,72.2706 -58.071,56.8687 -80.589,41.4668 -52.146,0 8.296,-10.6629 35.554,-31.9886 49.776,-46.2058 23.702,-22.5105 67.552,-42.6515 117.327,-71.0859 68.737,-40.282 143.4,-91.2269 180.139,-144.5413 46.22,-68.7164 87.699,-144.5413 87.699,-321.0713 0,-1.1847 0,-2.3695 -1.185,-2.3695 z"
         class="fil3" /><path
         inkscape:connector-curvature="0"
         style="fill:#000000"
         id="path308"
         d="m 11155.911,4735.8814 50.96,-71.0859 c 67.552,182.4538 -48.59,424.1458 -191.99,528.4052 -90.07,63.9772 -180.139,111.3678 -218.063,137.4327 -21.333,16.5867 -40.295,36.7277 -52.146,42.6515 -17.777,8.2934 -23.702,3.5543 -13.036,-27.2496 3.555,-10.6629 48.59,-46.2058 157.621,-120.846 90.07,-59.2382 92.44,-62.7925 149.326,-120.846 47.405,-47.3906 82.959,-99.5203 106.662,-161.128 8.295,-21.3258 48.59,-159.9433 10.666,-207.3339 z"
         class="fil3" /><path
         inkscape:connector-curvature="0"
         style="fill:#000000"
         id="path310"
         d="m 11171.317,4341.3548 34.369,-81.7488 c 103.106,193.1167 33.184,360.1685 -48.59,504.7098 -80.589,143.3565 -296.282,212.0729 -415.979,305.6693 -5.926,4.7391 -18.962,-7.1086 -18.962,-8.2933 53.33,-101.8898 303.392,-177.7148 360.278,-274.8655 41.479,-71.0859 88.884,-151.6499 109.032,-217.9967 13.036,-42.6515 31.998,-190.7471 -20.148,-227.4748 z"
         class="fil3" /><path
         inkscape:connector-curvature="0"
         style="fill:#000000"
         id="path312"
         d="m 11202.131,3964.5996 c 46.22,55.6839 48.59,216.8119 26.072,283.1587 -29.628,86.4879 -53.33,130.3242 -124.438,206.1491 -28.443,31.9887 -183.694,138.6175 -219.248,163.4976 -23.703,15.4019 -55.701,45.021 -74.663,53.3144 -24.888,10.6629 -14.221,-4.7391 -14.221,-18.9563 -1.186,-28.4343 168.287,-117.2917 285.615,-232.2139 37.924,-36.7277 71.107,-108.9983 86.514,-152.8346 17.777,-48.5754 26.073,-99.5203 28.443,-150.4652 2.37,-37.9124 2.37,-54.4991 -4.74,-56.8687 -2.371,-1.1847 -9.481,-1.1847 -13.037,0 -16.592,9.4782 -40.294,54.4992 -60.441,71.0859 -78.219,67.5316 -163.548,110.1832 -259.543,181.269 -61.626,45.0211 -90.069,69.9012 -103.106,82.9336 -17.777,18.9562 -21.332,-18.9563 -9.481,-41.4668 17.777,-34.3582 49.776,-66.3468 112.587,-105.4441 62.812,-41.4667 129.179,-95.9659 191.991,-137.4327 84.143,-54.4992 111.401,-129.1393 151.696,-145.726 z"
         class="fil3" /><path
         inkscape:connector-curvature="0"
         style="fill:#000000"
         id="path314"
         d="m 10775.485,4365.0501 14.222,-37.9125 c -3.555,-97.1507 -11.851,-199.0405 -43.85,-277.235 -65.182,-159.9432 -104.291,-248.8006 -188.435,-389.7876 -73.477,-124.4003 -193.175,-323.4408 -298.651,-405.1896 l -50.961,35.543 c 104.291,87.6726 284.43,354.2447 346.057,489.3078 45.035,100.7051 129.179,233.3987 156.437,345.9514 10.666,48.5753 21.332,81.7487 26.072,150.4651 4.741,55.6839 1.185,98.3355 4.741,117.2917 2.37,18.9562 14.221,11.8477 34.368,-28.4343 z"
         class="fil3" /><path
         inkscape:connector-curvature="0"
         style="fill:#000000"
         id="path316"
         d="m 10207.81,5739.3772 -27.258,272.4959 c 4.741,11.8477 84.144,-238.1377 94.81,-272.4959 31.999,-101.8897 54.516,-217.9967 73.478,-328.1798 13.037,-82.9336 41.48,-216.812 59.256,-353.0599 17.777,-136.248 23.703,-273.6807 27.258,-364.9076 18.962,-428.8849 -200.286,-1071.0274 -439.6812,-1204.9058 l -42.6645,43.8363 c 286.8007,241.692 413.6087,719.1522 419.5347,1140.9285 4.74,253.5397 -35.554,433.6239 -68.738,632.6644 -15.406,90.0421 -52.145,358.9837 -95.995,433.6239 z"
         class="fil3" /><path
         inkscape:connector-curvature="0"
         style="fill:#000000"
         id="path318"
         d="m 9496.7349,2429.1444 c -8.2959,-43.8363 -28.443,-215.6272 -36.7389,-284.3436 -11.8512,-99.5202 -69.9224,-194.3014 -88.8844,-268.9416 -14.2215,-59.2382 -27.2579,-126.7698 -26.0728,-195.4862 2.3703,-55.6839 4.7405,-180.0842 31.9984,-244.0615 -118.5125,77.0097 -187.2498,155.2042 -226.359,361.3532 -24.8876,137.4328 -8.2959,220.3663 17.7769,344.7666 9.481,45.0211 82.9588,199.0405 119.6977,220.3662 7.1108,0 15.4066,-4.739 15.4066,-18.9562 -1.1851,-8.2933 -9.481,-22.5105 -13.0364,-35.5429 -21.3322,-59.2383 -68.7372,-161.1281 -78.2182,-210.8882 -14.2215,-84.1183 -26.0728,-254.7244 -1.1852,-347.1361 9.481,-35.5429 46.2199,-137.4327 86.5142,-175.3451 3.5554,177.7147 -7.1108,291.4521 67.5522,462.0582 34.3686,78.1945 42.6645,106.6289 61.6265,188.3776 13.0364,49.7601 24.8876,149.2804 30.8133,191.9319 5.9256,55.684 41.4794,22.5106 39.1091,11.8477 z"
         class="fil3" /><path
         inkscape:connector-curvature="0"
         style="fill:#000000"
         id="path320"
         d="m 9954.1934,3026.2658 42.6645,-53.3144 c -117.3274,-117.2917 -259.5425,-342.397 -265.4681,-539.068 -1.1852,-73.4554 11.8512,-123.2155 52.1455,-165.867 73.4778,-77.0098 169.473,18.9562 195.5457,5.9238 -30.8132,-54.4992 -42.6645,-201.41 -218.0631,-233.3987 -106.6613,-20.141 -190.8052,20.141 -246.5061,81.7488 -17.7769,20.141 -37.924,52.1296 -53.3307,78.1945 l 13.0364,119.6612 c 39.1092,-91.2269 63.9968,-146.9108 155.2515,-207.3338 84.1439,-54.4992 231.0995,-7.1086 260.7276,86.4878 -175.3986,-58.0535 -238.2102,180.0843 -205.0267,312.7779 20.1471,85.3031 71.1075,175.3452 90.0695,254.7244 8.2959,35.543 161.1771,259.4635 178.954,259.4635 z"
         class="fil3" /><path
         inkscape:connector-curvature="0"
         style="fill:#000000"
         id="path322"
         d="m 9158.9741,1843.8706 30.8133,-137.4328 c -111.4018,94.7812 -215.6929,263.0178 -193.1755,451.3954 20.1471,169.4214 221.6185,439.5478 277.3194,456.1345 8.2959,2.3695 16.5917,-9.4781 16.5917,-20.141 -30.8132,-34.3582 -135.1043,-196.671 -168.2878,-245.2463 -17.7769,-26.0649 -61.6265,-132.6937 -66.367,-164.6823 -5.9256,-40.282 -5.9256,-81.7488 -1.1851,-125.5851 8.2958,-82.9335 46.2199,-137.4327 104.291,-214.4424 z"
         class="fil3" /><path
         inkscape:connector-curvature="0"
         style="fill:#000000"
         id="path324"
         d="m 9047.5723,2281.0488 -34.3686,-77.0097 c -77.0332,87.6726 -63.9968,280.7892 -29.6282,366.0923 43.8497,110.1831 174.2135,207.3338 289.1707,255.9092 30.8132,13.0324 54.5157,-22.5106 -2.3703,-52.1297 -68.7373,-34.3582 -168.2878,-92.4116 -220.4333,-188.3776 -67.5522,-122.0307 -49.7753,-242.8768 -2.3703,-304.4845 z"
         class="fil3" /><path
         inkscape:connector-curvature="0"
         style="fill:#000000"
         id="path326"
         d="m 9079.5707,2683.8688 -52.1455,-59.2382 c -35.5538,122.0307 -18.962,190.7471 -1.1852,251.1701 28.4431,92.4117 168.2879,197.8557 285.6153,194.3014 16.5918,0 24.8876,1.1848 39.1092,-3.5543 10.6661,-2.3695 15.4066,-13.0324 0,-20.141 -20.1472,-10.6629 -62.8117,-13.0324 -97.1803,-24.88 -55.7009,-20.141 -122.068,-78.1945 -152.8812,-132.6937 -29.6282,-49.7601 -59.2563,-144.5413 -21.3323,-204.9643 z"
         class="fil3" /><path
         inkscape:connector-curvature="0"
         style="fill:#000000"
         id="path328"
         d="M 9693.4658,3324.8266 9649.6161,3358 c -24.8876,-18.9563 -99.5505,-82.9336 -159.992,-97.1507 -45.0347,-10.6629 -135.1043,-13.0325 -174.2134,5.9238 -88.8844,41.4668 -71.1075,133.8784 -71.1075,206.1491 0,24.88 -114.9572,-68.7164 -131.549,-87.6726 -39.1091,-46.2059 -73.4778,-119.6613 -77.0332,-163.4976 -8.2958,-111.3679 11.8513,-188.3776 126.8085,-208.5186 l 156.4366,53.3144 c -54.5158,2.3696 -116.1423,-5.9238 -130.3639,0 -74.6629,34.3582 -94.81,92.4117 -94.81,148.0956 -1.1851,47.3906 37.924,161.128 87.6993,165.8671 -8.2959,-113.7374 116.1423,-176.5299 203.8416,-178.8995 101.9208,-1.1847 229.9144,46.2058 308.1327,123.2156 z"
         class="fil3" /><path
         style="color:#000000;font-style:normal;font-variant:normal;font-weight:normal;font-stretch:normal;font-size:medium;line-height:125%;font-family:monospace;-inkscape-font-specification:'monospace Bold';text-indent:0;text-align:start;text-decoration:none;text-decoration-line:none;text-decoration-style:solid;text-decoration-color:#000000;letter-spacing:0px;word-spacing:0px;text-transform:none;direction:ltr;block-progression:tb;writing-mode:lr-tb;baseline-shift:baseline;text-anchor:start;white-space:normal;clip-rule:nonzero;display:inline;overflow:visible;visibility:visible;opacity:1;isolation:auto;mix-blend-mode:normal;color-interpolation:sRGB;color-interpolation-filters:linearRGB;solid-color:#000000;solid-opacity:1;fill:#000000;fill-opacity:1;fill-rule:nonzero;stroke:none;stroke-width:70.15200043;stroke-linecap:butt;stroke-linejoin:miter;stroke-miterlimit:4;stroke-dasharray:none;stroke-dashoffset:0;stroke-opacity:1;color-rendering:auto;image-rendering:auto;shape-rendering:auto;text-rendering:auto;enable-background:accumulate"
         d="m 9396.4909,7224.1181 561.0812,1649.4454 -1280.0531,0 -902.3921,-2638.6875 -1027.2751,2638.6875 -1280.85,0 1700.3938,-4422.6782 -165.2251,-479.5578 -0.028,-0.08 c -67.4254,-199.5791 -153.1768,-336.9066 -253.4421,-414.1062 -98.2516,-72.93 -275.2113,-113.5078 -529.7344,-113.5078 l -488.4344,0 0,-1022.0813 0,-3e-4 644.6313,0 c 502.54,0 888.6606,101.9768 1155.8437,310.0984 l 0.095,0.074 0.094,0.075 c 309.3278,245.233 544.9777,609.3876 707.9154,1089.8962 l 0.01,0.025 649.5666,1930.555 c 180.2254,422.5192 291.5216,784.9322 591.4559,1080.64 216.878,209.7034 355.5377,7.1086 327.0947,-201.41 l 58.0711,3.5543 c 14.2215,156.389 -21.3322,257.0939 -113.772,324.6255 -117.3274,85.3032 -267.8384,-28.4343 -319.9839,-80.564 -34.3686,-33.1734 -125.6234,-130.324 -155.2515,-174.1604 -201.4713,-295.0064 -289.8438,-618.2282 -438.9936,-932.138 l -651.3326,-1933.0665 -0.01,-0.014 C 8025.5636,3366.6861 7795.3969,3012.9161 7496.43,2775.8588 7242.9554,2578.4592 6870.0395,2477.6744 6375.1628,2477.6744 l -588.5094,0 0,909.8391 432.3125,0 c 260.475,0 447.9011,38.8348 563.4359,124.7453 l 0.1828,0.1375 0.1828,0.139 c 113.4135,87.2411 202.9894,234.8644 272.5454,440.75 l 171.8046,498.6532 -1678.4125,4365.5047 1160.7704,0 1069.064,-2746.0266 939.0984,2746.0266 1161.5657,0 -535.8453,-1575.2516"
         id="path4178"
         inkscape:connector-curvature="0"
         sodipodi:nodetypes="ccccccccccscccsccccccccccccccccsccsccccccccccc" /></g></g></svg>